<svg xmlns="http://www.w3.org/2000/svg" width="384" height="384" version="1.0" viewBox="0 0 288 288"><path d="M111.5 5.6c-5.5 1.8-8.3 4.1-10.4 8.3-1.7 3.2-7.2 20.2-16.2 49.8-1 3.5-2.8 9.2-3.9 12.8-1.1 3.6-2.8 9.3-3.9 12.7-3.7 12.4-22.3 72.6-26.2 85.1-2.2 7-4.2 13.6-4.4 14.7-.2 1.1-.7 2.5-1 3-1 1.5.1 1.2 6.3-1.9 12.4-6.2 33.7-13.3 48.3-16.1l6.7-1.3 3.2-11.1c1.8-6.1 4.6-15.6 6.2-21.1 1.6-5.5 5.1-17.4 7.8-26.5 8.3-28.6 12.1-41.3 14.2-48.3 1.2-4.1 2.8-7.1 3.9-7.8 3.7-1.9 5.4.4 8.8 12.3 1.9 6.2 3.9 13.1 4.6 15.3.7 2.2 2.2 7.1 3.3 11 1.1 3.8 3.2 10.8 4.6 15.5 1.4 4.7 6 20 10.1 34 4.2 14 8 25.8 8.3 26.2.4.4 2.3 1 4.2 1.3 13.8 2.4 38.3 10.6 51.2 17.1 2.7 1.4 5.1 2.4 5.3 2.2.1-.2-1.1-4.4-2.7-9.3-1.5-5-3-9.7-3.1-10.5-.2-.8-2-6.9-4.1-13.5-7-22.7-15.7-50.9-27.6-90-14.5-47.6-16.9-54.7-19.4-58-5.2-6.8-5.6-6.9-39.9-7-21.4-.1-31.8.2-34.2 1.1zm-15 195.8c-2.6 16.9.8 32.4 9.3 42.6l2.9 3.4.7-3.5c.9-5.1 5.4-9 11-9.6 10-1.2 13.6 3.2 14.3 17 .2 5.1.9 10.8 1.5 12.7 2.3 7.7 8.7 15.4 16.6 19.8 2.4 1.4 2.7 1 1.2-1.8-1.8-3.3-2-12.8-.4-17.3 2-5.5 4.9-8.5 16.5-16.2 5.3-3.6 11.3-8.3 13.2-10.4 7.1-7.9 10.6-17.7 10.1-28.1-.4-6.9-1.5-9-3.6-7.3-5.2 4.2-17.9 8.5-29.3 9.9-24 2.9-50.3-2.7-59.6-12.7-1.5-1.6-2.9-2.9-3.2-2.9-.3 0-.9 2-1.2 4.4z"/></svg>